<svg width="auto" height="46px" viewBox="0 0 403 86" class="css-1j8o68f"><defs id="SvgjsDefs4928"><linearGradient id="SvgjsLinearGradient4935"><stop id="SvgjsStop4936" stop-color="#2d388a" offset="0"></stop><stop id="SvgjsStop4937" stop-color="#00aeef" offset="1"></stop></linearGradient><linearGradient id="SvgjsLinearGradient4938"><stop id="SvgjsStop4939" stop-color="#2d388a" offset="0"></stop><stop id="SvgjsStop4940" stop-color="#00aeef" offset="1"></stop></linearGradient></defs><g id="SvgjsG4929" featurekey="rootContainer" transform="matrix(1,0,0,1,0,0)" fill="#ffffff">    <path xmlns="http://www.w3.org/2000/svg" fill-rule="nonzero" d="             M0,0             H403             V86             H0,0             z             M4,4             v78             h395             v-78             z     "></path></g><g id="SvgjsG4930" featurekey="5TMTKC-0" transform="matrix(0.5457380414009094,0,0,0.5457380414009094,17,14)" fill="url(#SvgjsLinearGradient4935)">    <title xmlns="http://www.w3.org/2000/svg">A monogram_SVG-09</title>    <g xmlns="http://www.w3.org/2000/svg" id="Page-1" stroke="none" stroke-width="1" fill="none" fill-rule="evenodd">        <g id="Artboard" transform="translate(-2170.000000, -1423.000000)" fill="url(#SvgjsLinearGradient4935)" fill-rule="nonzero">            <g id="A-monogram_SVG-09" transform="translate(2170.000000, 1423.000000)">                <path d="M89,79.5635101 L89.1559909,79.8344697 L89.605825,80.6290404 L89.7182836,80.8121212 L92.4825871,85.6417929 L104.657131,107 L124,107 L107.443201,78 C99.2228441,78.9959596 91.8078358,79.4280303 89,79.5635101 Z" id="Path"></path>                <path d="M88.285995,45.6022862 L61.9023432,0 L0,107 L7.92454684,107 C10.7163138,101.734857 14.6567765,96.9618519 18.9752911,92.7497379 C21.3381147,90.4627481 23.7918161,88.3566911 26.2673282,86.4315668 C26.3109496,86.388143 26.358206,86.3628124 26.4018274,86.3193885 C28.2702756,84.8610707 30.1387238,83.4968379 31.9599155,82.2411647 C32.7269244,81.7273158 33.4902982,81.2098482 34.2573071,80.739423 C34.4390627,80.6272447 34.6171833,80.5150665 34.7734931,80.4246001 L34.7734931,80.4065068 C36.1475659,79.5090805 37.5398143,78.6586966 38.9356978,77.8517366 C42.2436508,75.9012817 45.6424817,74.0883358 49.0667584,72.3839494 C49.0449477,72.3839494 49.0449477,72.3839494 49.0449477,72.3839494 C49.0449477,72.3839494 49.0195019,72.3948054 48.9831508,72.4128986 C49.0049614,72.4020427 49.0267721,72.3911867 49.0485828,72.3803308 L49.0703935,72.3803308 C51.8839711,70.9690554 54.7411701,69.6229159 57.6020042,68.3455308 C64.3342339,65.3890899 71.0846392,62.8126078 77.5442354,60.5690419 C83.3058899,58.5751632 88.8458024,56.827353 93.9095152,55.3256113 C103.902441,52.3221279 112.143243,50.172647 116.86889,48.4899726 C130.576902,43.6735432 141.315027,37.5109743 148,10.1720383 C148.003635,10.1720383 126.640075,27.7876492 88.285995,45.6022862 Z M52.9454242,61.8681389 C48.7577737,64.1080862 44.977256,66.4384998 41.5311686,68.7472015 L61.9023432,33.5232169 L72.909466,52.5464845 C70.6375203,53.5307586 68.318318,54.5403632 65.9554944,55.5499679 C61.2516579,57.5655585 56.9040625,59.6716155 52.9454242,61.8681389 Z" id="Shape"></path>                <path d="M94.7629469,61.0239513 C90.2045426,62.3426106 85.3777834,63.7768783 80.434979,65.319529 C79.7387072,65.5435204 79.0206769,65.7675119 78.3026466,65.9915033 C71.6554269,68.0941326 64.8740298,70.3521108 58.3392289,72.7473741 C56.6311872,73.3507058 54.9920473,73.9540376 53.3782924,74.5826587 C48.0329558,76.6636114 43.2968571,78.8565598 39.0974679,81.2265338 C38.3794376,81.6275507 37.6614073,82.0321804 36.986894,82.4584867 C35.6378674,83.2641333 34.3831276,84.0697799 33.1682784,84.9187797 C33.0993765,84.9621329 33.034101,85.0090988 32.9651991,85.052452 C31.5291386,86.0351241 29.4838402,87.4007493 27.8229419,88.6327022 C27.815689,88.636315 27.8120626,88.6435405 27.8048098,88.6471533 L27.8193154,88.6254767 C27.3478814,88.9831404 26.8982059,89.3408042 26.4267719,89.6984679 C26.2925945,89.788787 26.1584171,89.9007828 26.0459982,90.0127785 C19.4894389,95.3379942 14.6155363,101.288218 11,106.992774 L15.5801629,106.992774 L17.1757857,106.992774 C17.1757857,106.996387 17.1794121,107 17.1794121,107 L17.5601858,107 C17.5601858,106.996387 17.5638122,106.992774 17.5638122,106.992774 L17.8684311,106.992774 C18.3833821,106.367766 18.923718,105.760822 19.5293294,105.15749 C24.0659753,100.504248 30.8473724,96.1653175 40.9288077,93.8386967 L40.9505662,93.8386967 C41.646838,93.7050244 42.3431098,93.5496755 43.0176231,93.4123904 C51.5977224,91.8010972 58.2413157,90.8617783 63.6084107,90.1030976 C76.7215295,88.3581321 76.5982313,88.6254767 84.0287568,82.0032782 C84.4095305,81.6889677 84.7939305,81.3313039 85.1747042,80.9736402 C85.1747042,80.9736402 84.5690928,80.9953168 83.4666624,81.0422827 C79.1766128,81.2879508 72.790495,81.3132401 59.4525385,84.2431926 C52.6022395,85.7424901 45.3711668,87.7764769 38.6115282,90.5980464 C33.3024558,92.7620927 28.33064,95.3741219 24.0478432,98.5858701 C24.0913602,98.5280658 24.14213,98.4738744 24.2001527,98.4160701 C28.4902023,94.1891349 34.5064258,90.005553 42.8399287,86.5156219 C45.4001781,85.4426306 48.1852653,84.4563458 51.1698053,83.5387034 C55.5940323,82.1514016 59.6810027,80.9664147 63.4742334,79.9584532 C71.4450948,77.7871814 78.0705561,76.2878839 83.593587,75.1715394 C84.3805192,75.0161905 85.1420664,74.8572289 85.8600967,74.7235566 C92.3513806,73.4916037 97.2470416,72.7545996 101.083789,71.9959189 C101.870721,71.84057 102.61051,71.6816083 103.306782,71.5045829 C107.034737,70.6555831 109.638504,69.625945 111.796221,67.7220178 C118.780697,61.5261256 124.640985,53.4949488 125,53 C124.347245,53.1336723 112.53601,55.9769184 96.9061585,60.4061685 C96.220766,60.6012578 95.4809772,60.8252492 94.7629469,61.0239513 Z" id="Shape"></path>            </g>        </g>    </g></g><g id="SvgjsG4931" featurekey="nameFeature-0" transform="matrix(3.9709556102752686,0,0,3.9709556102752686,114.2673017769622,-5.887227188643319)" fill="url(#SvgjsLinearGradient4938)"><path d="M0.94 5.5 l1.06 0 l3.6 10.8 l3.6 -10.8 l1.04 0 l-4.64 14 z M3.56 5.5 l2.54 7.7 l-0.5 1.56 l-3.1 -9.26 l1.06 0 z M7.16 19.5 l-1.06 0 l4.66 -14 l1.04 0 z M15.24 5.5 l1 0 l0 14 l-1 0 l0 -14 z M16.740000000000002 5.5 l1 0 l0 14 l-1 0 l0 -14 z M31.240000000000002 6.5 l-5 0 l0 13 l-1 0 l0 -13 l-3.5 0 l0 -1 l9.5 0 l0 1 z M24.740000000000002 8 l-3 0 l0 -1 l3 0 l0 1 z M31.240000000000002 8 l-3.16 0 l-0.98 -1 l4.14 0 l0 1 z M27.740000000000002 19.5 l-1 0 l0 -12.14 l1 1.04 l0 11.1 z M41.74 11.5 l0 1 l-5.5 0 l0 4.5 l6.5 0 l0 1 l-7.5 0 l0 -12.5 l7.5 0 l0 1 l-6.5 0 l0 5 l5.5 0 z M42.74 8 l-4.6 0 l-1.06 -1 l5.66 0 l0 1 z M36.74 7.359999999999999 l1 0.98 l0 2.66 l-1 0 l0 -3.64 z M41.74 14 l-3.6 0 l-1.06 -1 l4.66 0 l0 1 z M36.74 13.36 l1 0.98 l0 2.16 l-1 0 l0 -3.14 z M42.74 19.5 l-7.5 0 l0 -1 l7.5 0 l0 1 z M46.74 10.26 c0 -3 1.8 -5 4.5 -5 s4.5 2 4.5 5 l-1 0 c0 -2.4 -1.4 -4.02 -3.5 -4.02 s-3.5 1.62 -3.5 4.02 l0 4.5 c0 2.4 1.4 4 3.5 4 c0.96 0 1.74 -0.36 2.34 -0.96 l0.76 0.74 c-0.8 0.76 -1.84 1.2 -3.1 1.2 c-2.7 0 -4.5 -1.98 -4.5 -4.98 l0 -4.5 z M51.24 7.74 c-0.5 0 -0.9 0.16 -1.26 0.46 l-0.74 -0.7 c0.56 -0.5 1.2 -0.74 2 -0.74 c1.8 0 3 1.4 3 3.5 l-1 0 c0 -1.5 -0.8 -2.52 -2 -2.52 z M51.24 17.259999999999998 c1.2 0 2 -1 2 -2.5 l1 0 c0 2.1 -1.2 3.48 -3 3.48 s-3 -1.38 -3 -3.48 l0 -4.5 c0 -0.96 0.24 -1.76 0.7 -2.36 l0.7 0.7 c-0.26 0.46 -0.4 1 -0.4 1.66 l0 4.5 c0 1.5 0.8 2.5 2 2.5 z M55.74 14.76 c0 1.38 -0.4 2.54 -1.06 3.4 l-0.74 -0.7 c0.5 -0.72 0.8 -1.62 0.8 -2.7 l1 0 z M61.24 19.5 l-1 0 l0 -14 l1 0 l0 8 l4.64 0 l1 1 l-5.64 0 l0 5 z M61.74 5.5 l1 0 l0 7.5 l-1 0 l0 -7.5 z M68.74000000000001 19.5 l-1 0 l0 -3.5 l-4.6 0 l-1.06 -1 l5.66 0 l0 -9.5 l1 0 l0 14 z M67.24000000000001 5.5 l0 8.6 l-1 -0.96 l0 -7.64 l1 0 z M61.74 19.5 l0 -4.14 l1 1 l0 3.14 l-1 0 z M67.24000000000001 19.5 l-1 0 l0 -3 l1 0 l0 3 z"></path></g></svg>